<?xml version="1.0" encoding="UTF-8" standalone="no"?>
<!-- Created with Inkscape (http://www.inkscape.org/) -->

<svg
   xmlns:dc="http://purl.org/dc/elements/1.1/"
   xmlns:cc="http://creativecommons.org/ns#"
   xmlns:rdf="http://www.w3.org/1999/02/22-rdf-syntax-ns#"
   xmlns:svg="http://www.w3.org/2000/svg"
   xmlns="http://www.w3.org/2000/svg"
   xmlns:sodipodi="http://sodipodi.sourceforge.net/DTD/sodipodi-0.dtd"
   xmlns:inkscape="http://www.inkscape.org/namespaces/inkscape"
   id="svg3336"
   version="1.1"
   inkscape:version="0.91 r13725"
   width="117.65721"
   height="109.35363"
   viewBox="0 0 117.65721 109.35363"
   sodipodi:docname="controlValveManual2.svg"
   inkscape:export-filename="C:\Users\DAA426\myWork\objectDetection-overlay\rawSymbols\controlValveManu2.png"
   inkscape:export-xdpi="1972.8199"
   inkscape:export-ydpi="1972.8199">
  <metadata
     id="metadata3342">
    <rdf:RDF>
      <cc:Work
         rdf:about="">
        <dc:format>image/svg+xml</dc:format>
        <dc:type
           rdf:resource="http://purl.org/dc/dcmitype/StillImage" />
        <dc:title></dc:title>
      </cc:Work>
    </rdf:RDF>
  </metadata>
  <defs
     id="defs3340" />
  <sodipodi:namedview
     pagecolor="#ffffff"
     bordercolor="#666666"
     borderopacity="1"
     objecttolerance="10"
     gridtolerance="10"
     guidetolerance="10"
     inkscape:pageopacity="0"
     inkscape:pageshadow="2"
     inkscape:window-width="1920"
     inkscape:window-height="1017"
     id="namedview3338"
     showgrid="false"
     showguides="true"
     inkscape:guide-bbox="true"
     inkscape:zoom="5.6568542"
     inkscape:cx="96.992314"
     inkscape:cy="39.104572"
     inkscape:window-x="1912"
     inkscape:window-y="-8"
     inkscape:window-maximized="1"
     inkscape:current-layer="layer1"
     borderlayer="false"
     inkscape:showpageshadow="false"
     fit-margin-top="40"
     fit-margin-left="40"
     fit-margin-bottom="40"
     fit-margin-right="40" />
  <g
     inkscape:groupmode="layer"
     id="layer2"
     inkscape:label="Background"
     style="opacity:0"
     sodipodi:insensitive="true"
     transform="translate(39.682524,39.256732)" />
  <g
     inkscape:groupmode="layer"
     id="layer1"
     inkscape:label="Shape"
     transform="translate(39.682524,39.256732)">
    <g
       id="g4208"
       transform="translate(4.2426407,6.8942911)">
      <path
         inkscape:connector-curvature="0"
         d="m -5.78428,24.355854 c 0.432057,-0.441423 0.886722,-0.85779 1.343377,-1.273446 0.684604,-0.641642 1.450503,-1.188269 2.186202,-1.768589 0.865123,-0.67781 1.808844,-1.239285 2.754169,-1.79511 1.034642,-0.660796 2.140298,-1.1927 3.220993,-1.769811 1.231318,-0.672514 2.49873,-1.27416 3.786159,-1.830532 1.310016,-0.546569 2.62465,-1.080637 3.924583,-1.650898 1.28195,-0.513402 2.545731,-1.066725 3.794657,-1.65532 1.250346,-0.568889 2.518052,-1.101286 3.788844,-1.623285 1.184752,-0.468682 2.371817,-0.932619 3.569212,-1.367976 0.964463,-0.356109 1.948614,-0.654006 2.919022,-0.992671 0.686115,-0.252291 1.37935,-0.486034 2.054675,-0.766471 0.504897,-0.23638 1.014863,-0.463933 1.498263,-0.742778 0.367663,-0.214431 0.722148,-0.45001 1.084852,-0.672933 0.256238,-0.194038 0.509134,-0.384893 0.79304,-0.539461 0.254025,-0.187673 0.519356,-0.356929 0.789061,-0.521358 0.278769,-0.1766 0.578709,-0.318025 0.874639,-0.464116 0.366145,-0.213511 0.737832,-0.417211 1.102089,-0.634485 0.360027,-0.223475 0.736339,-0.425563 1.069786,-0.688572 0.437123,-0.325655 0.691996,-0.112657 0.75881,0.373864 0.0293,0.346738 0.02581,0.690026 -0.04299,1.031215 -0.06532,0.307344 -0.09173,0.617234 -0.173715,0.920966 -0.08127,0.334756 -0.10349,0.679254 -0.119194,1.022153 0.0156,0.418843 -0.03697,0.828538 -0.09391,1.241863 -0.06086,0.439278 -0.07733,0.882463 -0.0872,1.325252 -0.0075,0.442846 -0.0069,0.885771 -0.0067,1.328663 4.35e-4,0.424484 7.94e-4,0.848969 9.75e-4,1.273453 0.02707,0.422826 -0.02262,0.836467 -0.08259,1.253485 -0.05261,0.436696 -0.07811,0.873812 -0.141268,1.309262 -0.07073,0.488279 -0.102385,0.98049 -0.119403,1.473153 -0.01234,0.492375 -0.01158,0.984954 -0.01155,1.477448 4.06e-4,0.426024 8.95e-4,0.852049 0.0012,1.278073 2.31e-4,0.412094 2.41e-4,0.824187 2.57e-4,1.23628 0.02351,0.373746 -0.0128,0.736041 -0.0851,1.101642 -0.06137,0.306057 -0.07588,0.618201 -0.08599,0.92932 -0.0085,0.390603 -0.0071,0.781348 -0.0068,1.172021 4.87e-4,0.412521 8.06e-4,0.825042 9.78e-4,1.237563 1.46e-4,0.421898 1.62e-4,0.843796 1.71e-4,1.265693 -0.0063,0.391412 0.01845,0.783607 -0.02286,1.173266 -0.03575,0.381408 -0.124786,0.74847 -0.223058,1.117118 -0.04859,0.289874 -0.133777,0.570532 -0.221738,0.850599 -0.218884,0.455932 -0.648715,0.252012 -0.891435,-0.04288 -0.198469,-0.223502 -0.314448,-0.503185 -0.496562,-0.737574 -0.226919,-0.294891 -0.442572,-0.597726 -0.665369,-0.895722 -0.227957,-0.291576 -0.439434,-0.594641 -0.700609,-0.857989 -0.238934,-0.303301 -0.516079,-0.572597 -0.765472,-0.865694 -0.219263,-0.24911 -0.418354,-0.513717 -0.658417,-0.74364 -0.347083,-0.379303 -0.678687,-0.772562 -1.051129,-1.127505 -0.390086,-0.402899 -0.834979,-0.74854 -1.236215,-1.138032 -0.312097,-0.306051 -0.6477,-0.586202 -0.977777,-0.872473 -0.36052,-0.310287 -0.690443,-0.647843 -1.06212,-0.945688 -0.412626,-0.349822 -0.811227,-0.713959 -1.219948,-1.067375 -0.380273,-0.340719 -0.755312,-0.6869 -1.118068,-1.046324 -0.368312,-0.376327 -0.769674,-0.713746 -1.129205,-1.099116 -0.34929,-0.3726 -0.723274,-0.719952 -1.081287,-1.08356 -0.407339,-0.367174 -0.787383,-0.76175 -1.183475,-1.140581 -0.385808,-0.376593 -0.824343,-0.692768 -1.236613,-1.038573 -0.392281,-0.338267 -0.785416,-0.676861 -1.1867,-1.004596 C 16.912618,12.933271 16.481569,12.57955 16.044428,12.232893 15.697272,11.954582 15.318802,11.717838 14.947482,11.473232 14.574925,11.182928 14.216614,10.873274 13.852847,10.570944 13.513108,10.284049 13.171726,9.998249 12.8418,9.70032 12.403114,9.317629 11.943341,8.959625 11.483361,8.602991 10.913855,8.147751 10.334644,7.705696 9.756996,7.260936 9.342689,6.931088 8.894736,6.648955 8.461661,6.345329 8.137697,6.109105 7.793487,5.902803 7.454232,5.68973 7.17122,5.520975 6.907356,5.322004 6.62375,5.154242 6.275811,4.9152 5.916547,4.697347 5.558842,4.473037 5.131256,4.266345 4.759021,3.969982 4.334615,3.758007 3.870204,3.515932 3.426209,3.23378 2.986932,2.948711 2.622568,2.681517 2.225667,2.465435 1.842464,2.227321 1.577669,2.01972 1.312367,1.813354 1.039537,1.616651 0.780372,1.446423 0.534227,1.259908 0.287249,1.07276 0.101602,0.887264 -0.124742,0.753183 -0.341355,0.60745 -0.62174,0.404335 -0.917227,0.223422 -1.208752,0.036911 c -0.262914,-0.04793 -0.393504,-0.374198 -0.640586,-0.431294 -0.119699,-0.0158 -0.01913,0.01645 -0.02569,0.02674 -0.04224,0.0663 -0.100118,0.09473 -0.137801,0.171661 -0.103227,0.229817 -0.191239,0.456224 -0.235656,0.70513 -0.09312,0.296417 -0.165069,0.597721 -0.253633,0.89541 -0.13724,0.272563 -0.236563,0.550013 -0.284034,0.851082 -0.08876,0.285766 -0.15514,0.573367 -0.187328,0.870799 -0.07661,0.339373 -0.141632,0.67925 -0.175453,1.025645 -0.0277,0.344792 -0.02891,0.690944 -0.0305,1.03662 0.02329,0.350582 -0.01579,0.68951 -0.08449,1.032065 -0.06546,0.293362 -0.15573,0.584082 -0.247264,0.871097 -0.111083,0.304338 -0.153567,0.624053 -0.17906,0.945035 -0.06537,0.306559 -0.134253,0.609903 -0.166469,0.922138 -0.02744,0.33338 -0.0281,0.66818 -0.02969,1.002453 0.0097,0.327699 -0.08585,0.645071 -0.129964,0.96774 -0.04033,0.340534 -0.130208,0.671846 -0.17584,1.01213 -0.04509,0.33892 -0.124187,0.675645 -0.203666,1.008615 -0.100192,0.354861 -0.150217,0.719062 -0.177818,1.085811 -0.0098,0.325732 -0.106603,0.639274 -0.151286,0.960993 -0.022,0.35425 -0.04876,0.701165 -0.159811,1.040084 -0.09512,0.284637 -0.209684,0.561602 -0.307803,0.845043 -0.08376,0.282449 -0.09359,0.578674 -0.103535,0.871005 0.01658,0.345439 -0.02291,0.679579 -0.09017,1.017164 -0.06074,0.305589 -0.07453,0.617248 -0.08439,0.927795 0.01648,0.345706 -0.02401,0.679967 -0.09193,1.017625 -0.06116,0.305254 -0.07495,0.616677 -0.08485,0.926963 -0.05175,0.309913 -0.120907,0.614689 -0.152815,0.92778 -0.03079,0.314764 -0.09784,0.633124 -0.19291,0.935213 -0.09181,0.282205 -0.162752,0.564666 -0.307405,0.82585 -0.114071,0.218831 -0.257049,0.420826 -0.33273,0.657293 -0.03298,0.119874 -0.04453,0.243828 -0.06256,0.366399 -0.0035,0.02388 -0.0034,0.09426 -0.01152,0.0715 -0.09733,-0.274449 0.156564,0.04066 -0.14206,-0.259226 0.122677,-0.137626 -0.157003,0.03455 -0.135842,-0.0055 0.04361,-0.08258 0.212262,-0.233353 0.277347,-0.31568 0.194199,-0.194342 0.42017,-0.357009 0.638738,-0.523634 0.155528,-0.215988 0.351859,-0.366181 0.570917,-0.514679 0.255293,-0.144513 0.536668,-0.246566 0.814621,-0.341105 0.355429,-0.11956 0.524513,0.383093 0.169084,0.502654 l 0,0 c -0.234006,0.0776 -0.469155,0.165611 -0.687493,0.278348 -0.234197,0.156849 -0.360268,0.274727 -0.546941,0.497546 -0.185454,0.139287 -0.371906,0.280866 -0.545577,0.433123 -0.119524,0.146961 -0.279817,0.396002 -0.459651,0.472381 -0.06581,0.02795 -0.141193,0.02262 -0.211789,0.03392 -0.07619,-0.05225 -0.1721,-0.08364 -0.228565,-0.156756 -0.132307,-0.171335 0.04938,-0.533841 0.05845,-0.707802 0.09282,-0.268868 0.239549,-0.506804 0.376685,-0.754612 0.13954,-0.221233 0.166206,-0.485633 0.262474,-0.725591 0.0921,-0.261772 0.137766,-0.54957 0.169193,-0.824006 0.03127,-0.300376 0.08689,-0.595362 0.150293,-0.890431 0.01099,-0.339695 0.02758,-0.680455 0.09499,-1.01453 0.06222,-0.30927 0.09909,-0.612702 0.08179,-0.929987 0.01094,-0.33965 0.02748,-0.68034 0.09434,-1.014461 0.06175,-0.309937 0.09754,-0.61401 0.08026,-0.931787 0.01203,-0.345749 0.02809,-0.69527 0.132936,-1.027787 0.09943,-0.282106 0.211957,-0.558299 0.306806,-0.842167 0.111717,-0.303015 0.101793,-0.624272 0.136236,-0.941611 0.04396,-0.310655 0.135038,-0.61363 0.147667,-0.927495 0.03028,-0.395088 0.084,-0.787674 0.191126,-1.17018 0.07716,-0.314779 0.150626,-0.634446 0.193613,-0.955106 0.04638,-0.340735 0.133867,-0.6729 0.176029,-1.01351 0.0416,-0.299575 0.129331,-0.594465 0.125002,-0.897857 0.0017,-0.351827 0.0027,-0.704219 0.03256,-1.05504 0.03251,-0.307642 0.09061,-0.609389 0.165305,-0.909545 0.02945,-0.361822 0.0792,-0.722203 0.203053,-1.065598 0.08771,-0.266853 0.17004,-0.539242 0.231918,-0.812293 0.06209,-0.309525 0.09794,-0.612764 0.07414,-0.930241 0.0017,-0.362213 0.0033,-0.724928 0.03305,-1.086165 0.03459,-0.34809 0.09355,-0.691541 0.176076,-1.031622 0.0341,-0.305673 0.09308,-0.605295 0.19096,-0.89753 0.05311,-0.321581 0.143868,-0.629137 0.299242,-0.917591 0.08316,-0.279518 0.148541,-0.563038 0.240348,-0.840035 0.05778,-0.307476 0.164584,-0.591319 0.297589,-0.873776 0.182954,-0.298423 0.444287,-0.535543 0.819949,-0.426363 0.274224,0.123285 0.454923,0.354871 0.729945,0.477256 0.294583,0.189092 0.593767,0.371586 0.877374,0.577092 0.224562,0.151235 0.460297,0.291947 0.653549,0.483171 0.243047,0.185496 0.486375,0.368468 0.742227,0.536423 0.261999,0.19039 0.520845,0.385101 0.771978,0.58988 0.385923,0.240221 0.786103,0.457656 1.153199,0.726938 0.422906,0.274737 0.850404,0.546781 1.297329,0.780391 0.438162,0.222017 0.827427,0.521124 1.267692,0.739537 0.354,0.222361 0.710204,0.438114 1.054574,0.674884 0.286271,0.171772 0.555305,0.369906 0.841261,0.542089 0.34648,0.218219 0.698584,0.428597 1.029579,0.670318 0.43942,0.308263 0.89419,0.59444 1.314403,0.929626 0.578048,0.445231 1.157836,0.887549 1.727814,1.343174 0.470543,0.365084 0.941121,0.731264 1.389535,1.123413 0.323229,0.294101 0.660945,0.57296 0.994118,0.855922 0.348468,0.290223 0.692861,0.586073 1.04754,0.867325 0.383695,0.253684 0.775241,0.498717 1.134371,0.78677 0.439203,0.348295 0.872254,0.703728 1.308982,1.055136 0.402808,0.329654 0.798152,0.669279 1.192201,1.009156 0.420303,0.353883 0.8692,0.675477 1.262028,1.061364 0.400047,0.382754 0.784274,0.780952 1.195347,1.152301 0.359936,0.367946 0.738958,0.717024 1.09075,1.093453 0.354469,0.380607 0.752569,0.711668 1.114895,1.08435 0.353789,0.351911 0.721277,0.689127 1.09243,1.0225 0.401738,0.350999 0.797567,0.707109 1.203741,1.05384 0.376969,0.302482 0.713221,0.643277 1.078086,0.959014 0.337831,0.293758 0.682182,0.580315 1.001552,0.894429 0.394129,0.392448 0.846846,0.728446 1.231254,1.133225 0.371573,0.356506 0.708424,0.745406 1.052162,1.128495 0.252762,0.243879 0.466865,0.52019 0.696925,0.784827 0.235743,0.285531 0.511743,0.538013 0.736804,0.83422 0.277057,0.281797 0.50705,0.60086 0.748041,0.913141 0.22193,0.297271 0.43689,0.599156 0.663341,0.893025 0.177474,0.238727 0.304947,0.509282 0.496738,0.737809 0.09274,0.164025 0.136389,0.04397 0.003,0.135803 -0.02158,0.01486 -0.09286,0.10461 -0.04036,0.06746 0.08639,-0.272705 0.16774,-0.545393 0.215118,-0.82784 0.09177,-0.343609 0.176629,-0.684423 0.208541,-1.040444 0.04606,-0.368453 0.0063,-0.742665 0.01944,-1.113202 -9e-6,-0.421828 -2.5e-5,-0.843656 -1.71e-4,-1.265484 -1.72e-4,-0.412496 -4.91e-4,-0.824992 -9.78e-4,-1.237488 -2.21e-4,-0.396555 -0.0017,-0.793185 0.0071,-1.189666 0.0112,-0.339846 0.02848,-0.680638 0.09578,-1.014874 0.06569,-0.33207 0.09874,-0.658612 0.07502,-0.998718 -1.6e-5,-0.411988 -2.6e-5,-0.823977 -2.57e-4,-1.235965 -2.7e-4,-0.426124 -7.6e-4,-0.852248 -0.0012,-1.278372 -3.3e-5,-0.498632 -7.84e-4,-0.997352 0.01187,-1.495861 0.01781,-0.511997 0.05101,-1.023516 0.124582,-1.530943 0.06319,-0.435174 0.08681,-0.872284 0.141175,-1.308619 0.05645,-0.392213 0.105009,-0.779715 0.07719,-1.177737 -1.81e-4,-0.424462 -5.4e-4,-0.848925 -9.75e-4,-1.273387 -2.45e-4,-0.446949 -8.06e-4,-0.89393 0.0068,-1.340831 0.01042,-0.463049 0.02826,-0.926476 0.09204,-1.385825 0.0549,-0.39769 0.106028,-0.790564 0.0895,-1.193858 0.01773,-0.381493 0.04443,-0.764541 0.137103,-1.136462 0.07967,-0.292471 0.09903,-0.592759 0.166004,-0.888513 0.05927,-0.284628 0.0574,-0.570608 0.03615,-0.860516 -0.01597,-0.166932 -0.02357,-0.07859 0.101469,-0.06323 0.112397,0.01381 0.163483,-0.08358 -0.0081,0.04345 -0.353874,0.272665 -0.742508,0.494511 -1.124067,0.725662 -0.376433,0.224112 -0.759914,0.435239 -1.13887,0.654479 -0.282135,0.139191 -0.568575,0.272748 -0.833887,0.441731 -0.27822,0.168511 -0.5476,0.346928 -0.812773,0.534947 -0.27711,0.147652 -0.51431,0.341878 -0.767451,0.524726 -0.367458,0.224982 -0.725578,0.464359 -1.098075,0.680785 -0.504067,0.288323 -1.032621,0.528913 -1.559151,0.772737 -0.684938,0.283882 -1.387345,0.522141 -2.083258,0.777374 -0.968391,0.337483 -1.950084,0.63539 -2.912511,0.990353 -1.190685,0.432529 -2.370755,0.894446 -3.548875,1.360108 -1.262553,0.518472 -2.521955,1.0475 -3.764242,1.612443 -1.253247,0.590613 -2.521247,1.146244 -3.807692,1.66125 -1.300845,0.570654 -2.616322,1.105267 -3.927307,1.652084 -1.274184,0.550286 -2.52824,1.146085 -3.746779,1.811556 -1.074549,0.573174 -2.173338,1.102375 -3.2019,1.75911 -0.924562,0.543603 -1.848184,1.091702 -2.694549,1.75435 -0.725967,0.572499 -1.481929,1.1116 -2.157639,1.744378 -0.462415,0.420894 -0.921083,0.844025 -1.360848,1.288664 -0.288083,0.240069 -0.627592,-0.167342 -0.339509,-0.407411 z"
         id="path4200"
         style="opacity:1;fill:#000000;fill-opacity:1;stroke:#000000;stroke-width:1;stroke-miterlimit:4;stroke-dasharray:none;stroke-dashoffset:0;stroke-opacity:1" />
      <path
         inkscape:connector-curvature="0"
         d="m 16.2673,11.591424 c 0,-0.538934 0,-1.077868 0,-1.616803 -0.02442,-0.416309 0.0163,-0.823291 0.08356,-1.233029 0.05248,-0.344047 0.06503,-0.688641 0.144854,-1.027983 0.06711,-0.275939 0.192648,-0.527737 0.248328,-0.80748 0.0455,-0.290381 0.141636,-0.567502 0.185903,-0.858751 0.03392,-0.299492 0.13158,-0.585214 0.176253,-0.883513 0.02846,-0.311235 0.123766,-0.610996 0.244878,-0.897313 0.112629,-0.26329 0.11312,-0.552124 0.169804,-0.828404 0.06538,-0.310185 0.153497,-0.613822 0.230936,-0.921017 0.06885,-0.328248 0.08237,-0.660664 0.159646,-0.987338 0.04826,-0.297313 0.124107,-0.58496 0.203105,-0.875171 0.07216,-0.293152 0.08332,-0.595918 0.093,-0.896234 0.0077,-0.348507 0.0061,-0.697134 0.0057,-1.045701 -0.01872,-0.333641 0.03189,-0.674401 -0.01994,-1.005263 -0.0346,-0.277801 -0.123837,-0.537043 -0.206482,-0.802284 -0.05717,-0.297183 -0.121235,-0.588716 -0.195776,-0.882091 -0.111628,-0.291751 -0.179099,-0.595215 -0.284643,-0.8887 -0.05044,-0.188213 -0.109762,-0.370129 -0.178777,-0.552166 -0.132911,-0.350656 0.362991,-0.538622 0.495902,-0.187966 l 0,0 c 0.06997,0.184646 0.132089,0.369696 0.181936,0.560721 0.111283,0.309654 0.184616,0.629154 0.299651,0.937792 0.07186,0.284175 0.137634,0.566654 0.188204,0.855215 0.09052,0.293006 0.186465,0.581593 0.225447,0.887787 0.04416,0.356857 0.01671,0.717208 0.02481,1.076235 4.81e-4,0.354553 0.002,0.709167 -0.006,1.063656 -0.01121,0.341689 -0.02668,0.685763 -0.111444,1.01869 -0.07797,0.284752 -0.151865,0.56606 -0.198778,0.85823 -0.07865,0.328443 -0.08309,0.665532 -0.161443,0.994659 -0.07643,0.301113 -0.162995,0.59853 -0.22667,0.902806 -0.07107,0.306222 -0.05923,0.633 -0.19983,0.923287 -0.104168,0.24586 -0.187586,0.502154 -0.208934,0.770211 -0.04593,0.298769 -0.139368,0.585619 -0.176451,0.884811 -0.0469,0.299705 -0.141127,0.585796 -0.190436,0.884028 -0.05942,0.284865 -0.174489,0.545546 -0.251864,0.823507 -0.07801,0.326663 -0.0815,0.660647 -0.137579,0.991659 -0.06267,0.381629 -0.101451,0.758977 -0.07655,1.14711 0,0.538935 0,1.077869 0,1.616803 0,0.375 -0.53033,0.375 -0.53033,0 z"
         id="path4202"
         style="opacity:1;fill:#000000;fill-opacity:1;stroke:#000000;stroke-width:1;stroke-miterlimit:4;stroke-dasharray:none;stroke-dashoffset:0;stroke-opacity:1" />
      <path
         inkscape:connector-curvature="0"
         d="m 6.708666,-7.68836 c 0.456735,0.189555 0.93987,0.295877 1.408734,0.449271 0.318465,0.111105 0.652116,0.146775 0.986562,0.165472 0.339669,6.13e-4 0.667482,0.09706 0.987375,0.201413 0.305516,0.101039 0.625812,0.130021 0.944982,0.148612 0.347759,0.01488 0.695949,0.01326 1.043946,0.01299 0.37197,-0.02713 0.735114,0.05351 1.100525,0.10769 0.33054,0.0132 0.644994,0.112734 0.967033,0.176339 0.312334,0.05373 0.629947,0.06021 0.946013,0.0662 0.350621,0.0043 0.701281,0.0029 1.051919,0.0024 0.353932,-5.88e-4 0.707865,-8.23e-4 1.061798,-9.59e-4 0.353623,-1.04e-4 0.707245,-9.8e-5 1.060868,-9.9e-5 0.357393,-0.0051 0.709957,-0.01314 1.061767,0.05538 0.316938,0.06372 0.636364,0.0962 0.952073,0.166696 0.329002,0.07863 0.66605,0.105486 1.002892,0.121612 0.34944,0.01256 0.699182,0.01148 1.048793,0.01138 0.353596,-4.65e-4 0.707193,-9.83e-4 1.060789,-0.0013 0.353618,-2.3e-4 0.707236,-2.46e-4 1.060854,-2.62e-4 0.353557,-7e-6 0.707114,0 1.060671,3e-6 0.353552,3e-6 0.707105,4e-6 1.060657,4e-6 0.353554,1e-6 0.707107,1e-6 1.06066,1e-6 0.193606,0 0.387211,0 0.580816,0 0.375,-1e-6 0.375001,0.53033 1e-6,0.53033 l 0,0 c -0.193606,0 -0.387211,0 -0.580817,0 -0.353553,0 -0.707107,0 -1.06066,0 -0.353554,-1e-6 -0.707108,-2e-6 -1.060662,-5e-6 -0.353548,-3e-6 -0.707095,-1e-5 -1.060642,-3e-6 -0.35349,1.6e-5 -0.706979,3.2e-5 -1.060469,2.62e-4 -0.353684,2.73e-4 -0.707368,7.91e-4 -1.061053,0.0013 -0.358187,9.7e-5 -0.716511,0.0012 -1.074516,-0.012 -0.367161,-0.01787 -0.734413,-0.0484 -1.093054,-0.133778 -0.311282,-0.06972 -0.626833,-0.09924 -0.939229,-0.163991 -0.317113,-0.0639 -0.636338,-0.04567 -0.958871,-0.0453 -0.353554,0 -0.707109,-6e-6 -1.060664,9.8e-5 -0.353743,1.36e-4 -0.707485,3.7e-4 -1.061228,9.59e-4 -0.354269,5.17e-4 -0.708559,0.0019 -1.06281,-0.0025 -0.347401,-0.0067 -0.696408,-0.01518 -1.039394,-0.0763 -0.313745,-0.06283 -0.619173,-0.159755 -0.941439,-0.171895 -0.339787,-0.05054 -0.676244,-0.128746 -1.022214,-0.101937 -0.358539,2.74e-4 -0.717283,0.0019 -1.075562,-0.01391 -0.364458,-0.02172 -0.729643,-0.05811 -1.078268,-0.173849 C 9.650281,-6.458286 9.368011,-6.546582 9.073916,-6.544145 8.693686,-6.566015 8.314582,-6.609505 7.952476,-6.735061 7.468813,-6.893344 6.969904,-7.002199 6.499759,-7.200916 6.155079,-7.348635 6.363987,-7.836086 6.708666,-7.688366 Z"
         id="path4204"
         style="opacity:1;fill:#000000;fill-opacity:1;stroke:#000000;stroke-width:1;stroke-miterlimit:4;stroke-dasharray:none;stroke-dashoffset:0;stroke-opacity:1" />
      <path
         inkscape:connector-curvature="0"
         d="m 5.922352,-8.290874 c 0.152516,-0.454182 0.411965,-0.858146 0.621183,-1.285504 0.152828,-0.338843 0.386789,-0.631309 0.559636,-0.958103 0.149992,-0.258312 0.300179,-0.510748 0.466097,-0.759325 0.152534,-0.263852 0.310583,-0.524746 0.464411,-0.788168 0.195353,-0.294133 0.379401,-0.594686 0.571505,-0.890503 0.167146,-0.280457 0.404377,-0.514308 0.630364,-0.747928 0.195199,-0.215333 0.391253,-0.431336 0.601797,-0.63194 0.201069,-0.196014 0.381149,-0.411505 0.56839,-0.620869 0.24124,-0.317543 0.524669,-0.603159 0.827725,-0.861523 0.237764,-0.23476 0.502125,-0.432794 0.7691,-0.631003 0.245068,-0.237847 0.532079,-0.421778 0.802681,-0.627049 0.199874,-0.239803 0.468751,-0.391936 0.736576,-0.542441 0.211651,-0.175358 0.471667,-0.266871 0.718736,-0.379051 0.217956,-0.146272 0.41489,-0.305547 0.657578,-0.411144 0.260947,-0.07871 0.515862,-0.174225 0.763953,-0.286492 0.281056,-0.09455 0.566369,-0.174929 0.851606,-0.257872 0.265748,-0.142421 0.55332,-0.212566 0.849312,-0.255514 0.35146,-0.03922 0.705689,-0.03902 1.058858,-0.04058 0.358422,-0.0054 0.712119,-0.01235 1.064805,0.05692 0.285349,0.07372 0.570651,0.170709 0.845435,0.279484 0.274444,0.08867 0.522906,0.232572 0.778331,0.363239 0.267845,0.120024 0.531933,0.248438 0.793191,0.38254 0.243523,0.111156 0.482398,0.232624 0.719585,0.357232 0.216979,0.127133 0.380013,0.323353 0.615128,0.417205 0.242841,0.124771 0.480376,0.260319 0.712305,0.404129 0.185132,0.161337 0.363948,0.340145 0.583847,0.453874 0.21968,0.146194 0.442124,0.285827 0.662271,0.430691 0.264738,0.137517 0.471094,0.353193 0.691755,0.548209 0.190413,0.207585 0.351262,0.44197 0.518878,0.668542 0.23853,0.218891 0.339203,0.50738 0.400076,0.816147 0.103586,0.288599 0.159868,0.587182 0.193169,0.891002 0.01829,0.315441 0.0909,0.623899 0.195191,0.920985 0.07887,0.295325 0.161955,0.587204 0.246903,0.880951 0.101202,0.312322 0.06966,0.646079 0.131516,0.963571 0.04221,0.274854 0.167206,0.521955 0.241978,0.788041 0.0751,0.266506 0.133054,0.545555 0.231057,0.804963 0.12805,0.299331 0.173318,0.619647 0.201003,0.941187 0.03505,0.34253 -0.0042,0.689503 0.04109,1.030441 0.0419,0.235175 0.07719,0.47116 0.105845,0.708282 0.0448,0.372313 -0.481728,0.435675 -0.526531,0.06336 l 0,0 c -0.02841,-0.237131 -0.06506,-0.472845 -0.105832,-0.708175 -0.03901,-0.348537 -0.01716,-0.699264 -0.043,-1.04909 -0.02302,-0.276207 -0.05953,-0.550823 -0.171873,-0.80727 -0.09516,-0.275339 -0.167398,-0.56139 -0.242885,-0.842295 -0.07645,-0.282112 -0.215023,-0.543858 -0.253037,-0.836887 -0.0501,-0.301886 -0.03883,-0.611783 -0.118953,-0.909397 -0.08141,-0.284204 -0.163612,-0.566446 -0.237798,-0.85239 -0.117209,-0.335375 -0.199208,-0.683717 -0.22193,-1.039307 -0.03086,-0.290479 -0.0923,-0.572003 -0.186897,-0.848875 -0.04341,-0.240437 -0.119222,-0.432974 -0.306254,-0.600956 -0.144625,-0.197917 -0.288602,-0.398107 -0.444101,-0.586509 -0.201821,-0.180337 -0.390003,-0.378309 -0.633995,-0.503574 -0.204592,-0.139755 -0.418446,-0.2647 -0.622045,-0.406321 -0.223785,-0.126288 -0.433993,-0.286011 -0.612727,-0.47087 -0.205553,-0.133611 -0.424009,-0.247941 -0.638926,-0.365438 -0.244517,-0.109868 -0.4406,-0.273789 -0.652123,-0.434876 -0.235596,-0.124084 -0.47242,-0.245443 -0.715018,-0.354858 -0.261164,-0.134268 -0.524945,-0.262855 -0.793082,-0.382484 -0.241707,-0.124489 -0.475755,-0.261652 -0.736495,-0.344006 -0.240009,-0.102643 -0.498609,-0.179893 -0.74874,-0.250404 -0.316989,-0.06436 -0.636259,-0.04756 -0.958787,-0.04669 -0.329013,0.0014 -0.658971,8.42e-4 -0.986567,0.03531 -0.273706,0.03789 -0.52906,0.114432 -0.776593,0.239912 -0.261115,0.07503 -0.521181,0.152102 -0.780298,0.23158 -0.252528,0.114275 -0.512024,0.213918 -0.777835,0.292538 -0.240398,0.0939 -0.413219,0.289321 -0.643328,0.404932 -0.234823,0.106326 -0.478003,0.191997 -0.679104,0.359039 -0.250478,0.138909 -0.487933,0.280744 -0.67606,0.502999 -0.273514,0.204974 -0.559021,0.393268 -0.807316,0.630503 -0.258738,0.189389 -0.511159,0.382885 -0.741017,0.608818 -0.286409,0.240243 -0.54783,0.513321 -0.775065,0.810285 -0.197403,0.220634 -0.388542,0.446404 -0.600118,0.653418 -0.207611,0.192234 -0.393216,0.40821 -0.585219,0.61563 -0.203656,0.207868 -0.417283,0.417894 -0.566882,0.668755 -0.18979,0.2864 -0.364477,0.58259 -0.557238,0.867462 -0.159504,0.272675 -0.32318,0.542609 -0.481618,0.815648 -0.157069,0.233907 -0.298872,0.470957 -0.439523,0.715134 -0.173621,0.319654 -0.395638,0.610847 -0.551011,0.941331 -0.206731,0.41841 -0.459189,0.815291 -0.609591,1.260297 -0.14772,0.34468 -0.63517,0.135773 -0.48745,-0.208907 z"
         id="path4206"
         style="opacity:1;fill:#000000;fill-opacity:1;stroke:#000000;stroke-width:1;stroke-miterlimit:4;stroke-dasharray:none;stroke-dashoffset:0;stroke-opacity:1" />
    </g>
  </g>
</svg>
