<?xml version="1.0" encoding="UTF-8" standalone="no"?>
<!-- Created with Inkscape (http://www.inkscape.org/) -->

<svg
   xmlns:dc="http://purl.org/dc/elements/1.1/"
   xmlns:cc="http://creativecommons.org/ns#"
   xmlns:rdf="http://www.w3.org/1999/02/22-rdf-syntax-ns#"
   xmlns:svg="http://www.w3.org/2000/svg"
   xmlns="http://www.w3.org/2000/svg"
   xmlns:sodipodi="http://sodipodi.sourceforge.net/DTD/sodipodi-0.dtd"
   xmlns:inkscape="http://www.inkscape.org/namespaces/inkscape"
   id="svg3336"
   version="1.1"
   inkscape:version="0.91 r13725"
   width="117.65721"
   height="109.35363"
   viewBox="0 0 117.65721 109.35363"
   sodipodi:docname="controlValveManual1.svg"
   inkscape:export-filename="C:\Users\DAA426\myWork\objectDetection-overlay\rawSymbols\controlValveBB.png"
   inkscape:export-xdpi="1972.8199"
   inkscape:export-ydpi="1972.8199">
  <metadata
     id="metadata3342">
    <rdf:RDF>
      <cc:Work
         rdf:about="">
        <dc:format>image/svg+xml</dc:format>
        <dc:type
           rdf:resource="http://purl.org/dc/dcmitype/StillImage" />
        <dc:title></dc:title>
      </cc:Work>
    </rdf:RDF>
  </metadata>
  <defs
     id="defs3340" />
  <sodipodi:namedview
     pagecolor="#ffffff"
     bordercolor="#666666"
     borderopacity="1"
     objecttolerance="10"
     gridtolerance="10"
     guidetolerance="10"
     inkscape:pageopacity="0"
     inkscape:pageshadow="2"
     inkscape:window-width="1920"
     inkscape:window-height="1017"
     id="namedview3338"
     showgrid="false"
     showguides="true"
     inkscape:guide-bbox="true"
     inkscape:zoom="5.6568542"
     inkscape:cx="123.42043"
     inkscape:cy="39.104572"
     inkscape:window-x="1912"
     inkscape:window-y="-8"
     inkscape:window-maximized="1"
     inkscape:current-layer="layer1"
     borderlayer="false"
     inkscape:showpageshadow="false"
     fit-margin-top="40"
     fit-margin-left="40"
     fit-margin-bottom="40"
     fit-margin-right="40" />
  <g
     inkscape:groupmode="layer"
     id="layer2"
     inkscape:label="Background"
     style="opacity:0"
     sodipodi:insensitive="true"
     transform="translate(39.682524,39.256732)" />
  <g
     inkscape:groupmode="layer"
     id="layer1"
     inkscape:label="Shape"
     transform="translate(39.682524,39.256732)"
     sodipodi:insensitive="true">
    <g
       id="g4194">
      <path
         inkscape:connector-curvature="0"
         d="m 2.1449938,6.4655817 c 0.07098,0.685342 0.110857,1.373151 0.13687,2.061488 0.02801,0.584392 0.02705,1.165492 -0.03037,1.7475403 -0.06055,0.649603 -0.16051,1.293686 -0.22218,1.943307 -0.06282,0.725071 -0.07285,1.453214 -0.07984,2.180528 -0.04801,0.755576 -0.112956,1.509625 -0.147313,2.266051 -0.02095,0.622168 -0.111952,1.239121 -0.160288,1.859628 -0.03884,0.525488 -0.04388,1.052593 -0.04726,1.579247 -0.0021,0.601982 -0.0011,1.20397 -5.38e-4,1.805954 4.61e-4,0.477041 6.29e-4,0.954083 7.17e-4,1.431124 6.5e-5,0.494145 5.6e-5,0.988289 5.4e-5,1.482434 -3e-6,0.407029 -6e-6,0.814058 -8e-6,1.221087 0.0083,0.11106 -0.02145,0.268819 0.04082,0.374363 0.0039,0.0065 0.01123,-0.0154 0.007,-0.0217 -0.0188,-0.02788 -0.03861,-0.06123 -0.07036,-0.0723 -0.05159,-0.01799 -0.109089,-0.0062 -0.163633,-0.0093 0.140083,-0.145895 0.260167,-0.312408 0.400513,-0.46022 0.19185,-0.223227 0.42184,-0.408397 0.596903,-0.645866 0.288015,-0.276305 0.550977,-0.576113 0.83486,-0.855311 0.302587,-0.287534 0.594814,-0.585276 0.909769,-0.859766 0.364592,-0.309742 0.733722,-0.614036 1.115921,-0.902124 0.716865,-0.484017 1.484105,-0.882909 2.264701,-1.252244 0.864408,-0.439924 1.76211,-0.806986 2.6485472,-1.198998 1.224726,-0.559594 2.492708,-1.01365 3.752067,-1.486953 1.338063,-0.474901 2.697931,-0.888079 4.05717,-1.297813 1.274623,-0.430852 2.562869,-0.819089 3.853013,-1.200386 1.215222,-0.386499 2.423216,-0.796425 3.624881,-1.22319 0.886847,-0.312782 1.752813,-0.675206 2.608766,-1.063155 0.47364,-0.263218 0.979283,-0.464311 1.44887,-0.734602 0.279346,-0.164436 0.54667,-0.347713 0.822452,-0.518645 0.222826,-0.100415 0.404134,-0.268084 0.590434,-0.42424 0.239822,-0.174645 0.488029,-0.335884 0.732014,-0.50479 0.282593,-0.208954 0.587175,-0.394853 0.905199,-0.545163 0.226952,-0.10715 0.416758,-0.264376 0.611166,-0.419109 0.205723,-0.133555 0.416998,-0.264893 0.594569,-0.435473 0.22037,-0.235842 0.485634,-0.4241813 0.746892,-0.6115843 0.301839,-0.163964 0.590894,-0.347449 0.878764,-0.534005 0.255965,-0.127525 0.48529,-0.296479 0.715065,-0.464904 0.25617,-0.149819 0.470383,-0.356083 0.722673,-0.510818 0.270672,-0.173599 0.515232,-0.377996 0.802232,-0.527002 0.309789,-0.112741 0.596235,-0.276618 0.902921,-0.39645 0.262854,-0.170636 0.570992,-0.217431 0.860761,-0.315521 0.274967,-0.07587 0.542447,-0.168394 0.814079,-0.254881 0.318688,-0.125252 0.627251,-0.268113 0.956901,-0.363256 0.278762,-0.142907 0.591554,-0.178073 0.885291,-0.270934 0.493845,-0.122001 0.67962,0.182919 0.653285,0.634984 -0.05851,0.394483 -0.172119,0.78105 -0.285141,1.16339 -0.152703,0.591979 -0.386772,1.159421 -0.602654,1.730414 -0.253601,0.7846263 -0.555398,1.5518903 -0.83143,2.3286003 -0.39764,1.02743 -0.752351,2.070653 -1.091764,3.118624 -0.37444,1.193568 -0.650908,2.414187 -1.000403,3.614956 -0.38118,1.162032 -0.798331,2.311727 -1.20106,3.466315 -0.36967,0.971547 -0.737819,1.943287 -1.114097,2.912276 -0.221158,0.521164 -0.416411,1.055619 -0.57655,1.598875 -0.09027,0.408223 -0.244892,0.795893 -0.342357,1.202034 -0.118196,0.433755 -0.33041,0.962107 -0.838821,0.487051 -0.211835,-0.288057 -0.339841,-0.622414 -0.490235,-0.943805 -0.129124,-0.303499 -0.239061,-0.613331 -0.370727,-0.915512 -0.137717,-0.286797 -0.303406,-0.557265 -0.462654,-0.832425 -0.199457,-0.320785 -0.418828,-0.62868 -0.623766,-0.945906 -0.243501,-0.399486 -0.55667,-0.746522 -0.874272,-1.087233 -0.428893,-0.535256 -0.927774,-1.005134 -1.420069,-1.480506 -0.648631,-0.622669 -1.327284,-1.213772 -2.011475,-1.796945 -0.728675,-0.619486 -1.480639,-1.211606 -2.239433,-1.794009 -0.822534,-0.631932 -1.678718,-1.217186 -2.513031,-1.832996 -0.884072,-0.669871 -1.84815,-1.223533 -2.781308,-1.820826 -0.991218,-0.6862 -2.049077,-1.261879 -3.08849,-1.867777 -0.863024,-0.529994 -1.763509,-0.98946 -2.668295,-1.442231 -0.873313,-0.428019 -1.766775,-0.811926 -2.658129,-1.200038 -0.61845,-0.273749 -1.217197,-0.5876783 -1.834115,-0.8648163 -0.47236,-0.26195 -0.9748772,-0.461275 -1.4621992,-0.691357 -0.353975,-0.169058 -0.70429,-0.346739 -1.050385,-0.531525 -0.330476,-0.119963 -0.616284,-0.324308 -0.928373,-0.480145 -0.262241,-0.15984 -0.517088,-0.326188 -0.81085,-0.420836 -0.308865,-0.08125 -0.629983,-0.08758 -0.947313,-0.09459 -0.351637,-0.0043 -0.703315,-0.0017 -1.054965,-6.16e-4 -0.353994,0.0011 -0.70799,0.0015 -1.061986,0.0016 -0.360659,1.42e-4 -0.721318,1.19e-4 -1.081978,1.14e-4 -0.439737,0.0089 -0.875291,0.0052 -1.311534,-0.05269 -0.39931002,-0.05386 -0.78286302,-0.179396 -1.18056202,-0.244301 -0.270335,-0.02454 -0.528123,-0.11402 -0.793349,-0.167156 -0.36756798,-0.07429 -0.26250798,-0.594108 0.10506,-0.519819 l 0,0 c 0.258913,0.05272 0.510691,0.138601 0.774384,0.16368 0.392354,0.06501 0.771633,0.184136 1.16464702,0.24193 0.412846,0.0555 0.825059,0.05538 1.241361,0.04802 0.36056,5e-6 0.72112,2.8e-5 1.08168,-1.14e-4 0.35353,-1.94e-4 0.707061,-5.08e-4 1.060589,-0.0016 0.356163,-0.0011 0.712353,-0.0037 1.068502,7.46e-4 0.369985,0.0084 0.743933,0.01942 1.102388,0.121413 0.316984,0.107323 0.602763,0.269373 0.883195,0.450924 0.314727,0.16066 0.605174,0.362809 0.939222,0.485788 0.33827,0.181267 0.681338,0.354393 1.027466,0.519971 0.4832132,0.230196 0.9841632,0.424899 1.4524642,0.686862 0.614851,0.276643 1.212278,0.588486 1.828393,0.862284 0.899944,0.3919633 1.802068,0.7795863 2.683718,1.2120023 0.914916,0.457849 1.825323,0.922824 2.698192,1.45841 1.045294,0.610264 2.110137,1.188563 3.10718,1.879203 0.94301,0.603698 1.917179,1.163411 2.810355,1.840812 0.8369,0.617871 1.695969,1.204806 2.520966,1.83897 0.765976,0.587915 1.524828,1.185923 2.260557,1.8111 0.692521,0.590303 1.379316,1.188762 2.035838,1.819052 0.498955,0.48181 1.004644,0.958332 1.439706,1.500497 0.338817,0.363862 0.671652,0.735456 0.932031,1.161464 0.208793,0.324896 0.434779,0.638741 0.637152,0.967826 0.168819,0.292589 0.344775,0.580372 0.48967,0.885946 0.12982,0.297958 0.238984,0.603016 0.364935,0.902686 0.127103,0.27196 0.238758,0.550918 0.397481,0.806547 0.02694,0.08747 0.0031,-0.02324 -0.144241,0.04454 -0.03478,0.016 -0.04662,0.06101 -0.0735,0.08828 -0.01403,0.01423 0.02586,-0.03099 0.03469,-0.04892 0.0217,-0.04406 0.03998,-0.08982 0.05645,-0.13609 0.02314,-0.06502 0.04152,-0.131643 0.06227,-0.197464 0.100734,-0.414618 0.255112,-0.811525 0.349321,-1.227966 0.165324,-0.556982 0.363437,-1.105864 0.590731,-1.640407 0.374096,-0.96324 0.739925,-1.929284 1.107718,-2.894965 0.399731,-1.145849 0.813386,-2.286962 1.192614,-3.439901 0.351211,-1.205764 0.627891,-2.431831 1.005063,-3.630114 0.340993,-1.052696 0.697213,-2.100709 1.096583,-3.132813 0.277263,-0.780029 0.580046,-1.550681 0.835082,-2.3385583 0.211282,-0.558739 0.441026,-1.113805 0.590134,-1.69319 0.102583,-0.34702 0.206022,-0.697347 0.264974,-1.05407 0.0034,-0.02995 5e-6,-0.06152 0.01034,-0.08984 0.0034,-0.0094 0.264934,-0.0091 0.01829,0.0036 -0.299119,0.08736 -0.609239,0.134992 -0.893018,0.273202 -0.325338,0.09142 -0.625848,0.242336 -0.942373,0.358886 -0.270339,0.08489 -0.536714,0.177681 -0.809797,0.253507 -0.283664,0.08993 -0.576898,0.143376 -0.833757,0.305909 -0.290607,0.110892 -0.558904,0.272056 -0.853239,0.374246 -0.27851,0.138512 -0.504372,0.351628 -0.770822,0.50962 -0.241737,0.139102 -0.434914,0.350243 -0.681658,0.483607 -0.237875,0.174104 -0.475788,0.349873 -0.740237,0.48225 -0.281209,0.18183 -0.561682,0.364592 -0.858729,0.5203763 -0.24377,0.173215 -0.490066,0.349036 -0.694495,0.568865 -0.192248,0.174475 -0.403206,0.328643 -0.625745,0.462218 -0.227418,0.179413 -0.451948,0.360206 -0.716672,0.48425 -0.292696,0.133696 -0.568325,0.31098 -0.827399,0.500554 -0.231857,0.160335 -0.467027,0.314459 -0.696479,0.477928 -0.206155,0.167872 -0.405567,0.35521 -0.649004,0.466171 -0.281496,0.173202 -0.552893,0.361147 -0.83804,0.52791 -0.485591,0.275782 -1.002958,0.489514 -1.493065,0.757183 -0.869533,0.394103 -1.749368,0.762028 -2.650225,1.079876 -1.210661,0.429882 -2.427628,0.843012 -3.652045,1.232021 -1.289247,0.381007 -2.57651,0.769177 -3.85029,1.199573 -1.347995,0.406145 -2.696478,0.816177 -4.023637,1.286474 -1.249971,0.46971 -2.508576,0.920107 -3.724143,1.475542 -0.8823612,0.390181 -1.7759762,0.75539 -2.6363382,1.193413 -0.748284,0.353574 -1.483353,0.735569 -2.172313,1.196407 -0.372374,0.280299 -0.731642,0.576857 -1.086699,0.878442 -0.307985,0.268046 -0.59333,0.559388 -0.888873,0.840561 -0.268413,0.25545 -0.503506,0.545689 -0.780618,0.79389 -0.192774,0.251573 -0.427754,0.460085 -0.639108,0.695231 -0.179061,0.180173 -0.309746,0.410228 -0.523365,0.554691 -0.08877,0.016 -0.176977,0.06042 -0.266318,0.04799 -0.33908,-0.0472 -0.33641,-0.543281 -0.336198,-0.782168 1e-6,-0.407029 5e-6,-0.814058 8e-6,-1.221087 2e-6,-0.494111 1.1e-5,-0.988223 -5.4e-5,-1.482334 -8.8e-5,-0.476922 -2.56e-4,-0.953844 -7.17e-4,-1.430766 -5.19e-4,-0.603274 -0.0015,-1.206552 5.49e-4,-1.809825 0.0035,-0.539277 0.0089,-1.079005 0.04886,-1.617073 0.04802,-0.614807 0.137771,-1.226115 0.15923,-1.842484 0.03417,-0.750092 0.09707,-1.497943 0.146789,-2.247063 0.0072,-0.742361 0.01771,-1.485556 0.08219,-2.2256 0.06188,-0.65031 0.161429,-1.295103 0.222379,-1.945353 0.0554,-0.5579963 0.05482,-1.1149653 0.02817,-1.6753083 -0.02554,-0.677399 -0.06474,-1.354276 -0.134616,-2.028723 -0.03731,-0.373139 0.490384,-0.425909 0.527698,-0.05277 z"
         id="path4186"
         style="opacity:1;fill:#000000;fill-opacity:1;stroke:#000000;stroke-width:1;stroke-miterlimit:4;stroke-dasharray:none;stroke-dashoffset:0;stroke-opacity:1" />
      <path
         inkscape:connector-curvature="0"
         d="m 22.100931,14.398706 c 0,-0.584182 0,-1.168364 0,-1.752546 0,-0.40371 0,-0.807421 0,-1.211132 0,-0.353122 0,-0.706244 0,-1.059366 -0.02351,-0.3895653 0.01664,-0.7697033 0.08408,-1.1523243 0.104466,-0.330179 0.190238,-0.66199 0.233751,-1.005705 0.03484,-0.339603 0.0358,-0.681413 0.0376,-1.022426 6.01e-4,-0.353037 -5.96e-4,-0.706074 -0.0012,-1.05911 -3.06e-4,-0.235866 -1.72e-4,-0.117935 -4.01e-4,-0.353792 -3.65e-4,-0.375 0.529964,-0.375516 0.530329,-5.17e-4 l 0,0 c 2.3e-4,0.235629 9.6e-5,0.117813 4.01e-4,0.353446 5.77e-4,0.354266 0.0018,0.708532 0.0012,1.062799 -0.0019,0.362621 -0.0035,0.726097 -0.04191,1.087101 -0.04561,0.351319 -0.123808,0.694354 -0.237493,1.030292 -0.06218,0.352543 -0.09992,0.7008903 -0.07603,1.0602363 0,0.353122 0,0.706244 0,1.059366 0,0.403711 0,0.807422 0,1.211132 0,0.584182 0,1.168364 0,1.752546 0,0.375 -0.53033,0.375 -0.53033,0 z"
         id="path4188"
         style="opacity:1;fill:#000000;fill-opacity:1;stroke:#000000;stroke-width:1;stroke-miterlimit:4;stroke-dasharray:none;stroke-dashoffset:0;stroke-opacity:1" />
      <path
         inkscape:connector-curvature="0"
         d="m 10.456154,3.7918687 c 0.766304,0.218551 1.538667,0.413608 2.317985,0.580371 0.699197,0.145731 1.411046,0.195062 2.123037,0.220838 0.599138,0.01574 1.198553,0.01245 1.797833,0.0112 0.713663,-0.0017 1.427329,-0.0024 2.140994,-0.0028 0.575804,-3.07e-4 1.151607,-3.45e-4 1.72741,-3.56e-4 0.495803,2e-6 0.991606,1.5e-5 1.487409,2.2e-5 0.4516,6e-6 0.903201,6e-6 1.354801,7e-6 0.406764,0 0.813527,0 1.220291,0 0.390529,0.05063 0.77772,0.114036 1.170691,0.145598 0.388863,0.03829 0.756502,0.153739 1.126925,0.26866 0.186923,0.04693 0.09288,0.02628 0.282115,0.06197 0.368278,0.07068 0.268315,0.591508 -0.09996,0.520823 l 0,0 c -0.228838,-0.04454 -0.115657,-0.01903 -0.33958,-0.07637 -0.333217,-0.103775 -0.662149,-0.210654 -1.012159,-0.246473 -0.378618,-0.0307 -0.753119,-0.08409 -1.128029,-0.14388 -0.406764,0 -0.813527,0 -1.220291,0 -0.451603,-1e-6 -0.903206,-1e-6 -1.354808,-7e-6 -0.495798,-7e-6 -0.991595,-2e-5 -1.487392,-2.2e-5 -0.575694,1.1e-5 -1.151387,5e-5 -1.727081,3.56e-4 -0.71341,4.56e-4 -1.426821,0.0011 -2.140229,0.0028 -0.606068,0.0013 -1.212273,0.0046 -1.818193,-0.01155 -0.742864,-0.02708 -1.485501,-0.07981 -2.214902,-0.23226 -0.793112,-0.170187 -1.57935,-0.368234 -2.359253,-0.590965 -0.3591852,-0.107756 -0.206795,-0.61572 0.152389,-0.507964 z"
         id="path4190"
         style="opacity:1;fill:#000000;fill-opacity:1;stroke:#000000;stroke-width:1;stroke-miterlimit:4;stroke-dasharray:none;stroke-dashoffset:0;stroke-opacity:1" />
      <path
         inkscape:connector-curvature="0"
         d="m 12.490789,3.1643337 c 0.244491,-0.585124 0.558512,-1.129086 0.962284,-1.617307 0.423321,-0.50606 0.986392,-0.85434001 1.54049,-1.19842001 0.565874,-0.32871 1.1413,-0.640038 1.717778,-0.94952 0.466385,-0.236305 0.92887,-0.48105299 1.385319,-0.73572299 0.380863,-0.20632 0.763512,-0.406714 1.137335,-0.625304 0.286183,-0.154817 0.571766,-0.309259 0.857664,-0.464638 0.280366,-0.120929 0.577228,-0.185198 0.862464,-0.295623 0.361976,-0.141911 0.74677,-0.201834 1.12206,-0.296974 0.369132,-0.09691 0.74907,-0.130146 1.128861,-0.148715 0.381733,-0.06025 0.711577,0.06182 1.060595,0.192473 0.3876,0.155865 0.723515,0.403133 1.057049,0.649523 0.344595,0.195962 0.60168,0.494702 0.878624,0.770258 0.280443,0.235305 0.52834,0.498227 0.774555,0.76810699 0.277552,0.250025 0.453693,0.572182 0.642778,0.886951 0.149064,0.285554 0.273567,0.581221 0.424625,0.865829 0.117199,0.28950601 0.248925,0.57328601 0.331722,0.87532001 0.129836,0.276707 0.194244,0.570953 0.232893,0.8722 0.0591,0.37161 0.01278,0.735309 -0.04779,1.102295 -0.06108,0.369992 -0.58433,0.28361 -0.523248,-0.08638 l 0,0 c 0.05236,-0.317093 0.09863,-0.627938 0.04487,-0.949638 -0.03432,-0.278657 -0.10244,-0.544005 -0.21887,-0.800807 -0.06924,-0.264543 -0.191744,-0.509442 -0.288035,-0.764407 -0.146872,-0.27685101 -0.270755,-0.56291501 -0.411474,-0.84249101 -0.169691,-0.285531 -0.326465,-0.577399 -0.579775,-0.802019 -0.239624,-0.264115 -0.482199,-0.519403 -0.756368,-0.74908299 -0.258805,-0.257682 -0.495896,-0.538347 -0.819744,-0.719669 -0.294053,-0.217507 -0.587438,-0.438771 -0.927942,-0.579396 -0.287042,-0.107715 -0.53132,-0.216003 -0.848794,-0.159358 -0.344507,0.01653 -0.689335,0.04508 -1.024212,0.133077 -0.354842,0.08995 -0.718578,0.146455 -1.061603,0.277733 -0.26412,0.101456 -0.535818,0.170428 -0.8003,0.266919 -0.281184,0.15232 -0.561834,0.304011 -0.842934,0.456338 -0.377117,0.220444 -0.762867,0.422943 -1.14709,0.63086999 -0.459329,0.255083 -0.92323,0.502747 -1.392413,0.739601 -0.566777,0.304188 -1.13238,0.61039 -1.689054,0.932924 -0.505798,0.31336301 -1.023485,0.62713301 -1.412071,1.08659601 -0.38008,0.455362 -0.665992,0.968888 -0.895903,1.515629 -0.167705,0.33541 -0.642047,0.09824 -0.474342,-0.237171 z"
         id="path4192"
         style="opacity:1;fill:#000000;fill-opacity:1;stroke:#000000;stroke-width:1;stroke-miterlimit:4;stroke-dasharray:none;stroke-dashoffset:0;stroke-opacity:1" />
    </g>
  </g>
</svg>
